<?xml version="1.0" encoding="UTF-8"?>
<!-- Created with Inkscape (http://www.inkscape.org/) -->
<svg width="637.33" height="234.67" version="1.1" viewBox="0 0 637.33 234.67" xmlns="http://www.w3.org/2000/svg" xmlns:xlink="http://www.w3.org/1999/xlink">
 <defs>
  <clipPath id="clipPath3">
   <path transform="translate(-497.82 -286.23)" d="m0 500h700v-500h-700z"/>
  </clipPath>
 </defs>
 <rect x="3.6152" y="1.8076" width="636.27" height="234.99" fill="#fff" stroke-width=".9602"/>
 <g transform="translate(6,12)">
  <path d="m95.742 97.953c6.2188 0 10.906 1.8281 14.062 5.4844 3.1641 3.6484 4.75 8.8516 4.75 15.609v26.5c0 0.83594-0.22656 1.4922-0.67187 1.9688-0.4375 0.48047-1.043 0.71875-1.8125 0.71875h-7.5c-0.77344 0-1.375-0.23828-1.8125-0.71875-0.4375-0.47656-0.65625-1.1328-0.65625-1.9688v-26.5c0-3.4062-0.78906-5.9141-2.3594-7.5312-1.5625-1.625-3.7188-2.4375-6.4688-2.4375-2.4297 0-4.4648 0.97656-6.1094 2.9219-1.6484 1.9492-2.5 4.8672-2.5625 8.75v24.797c0 0.83594-0.21875 1.4922-0.65625 1.9688-0.4375 0.48047-1.043 0.71875-1.8125 0.71875h-7.5156c-0.77343 0-1.375-0.23828-1.8125-0.71875-0.4375-0.47656-0.65625-1.1328-0.65625-1.9688v-26.5c0-3.4062-0.77343-5.9141-2.3125-7.5312-1.543-1.625-3.6875-2.4375-6.4375-2.4375-2.5859 0-4.6875 1.0391-6.3125 3.1094-1.6172 2.0625-2.4219 5.3711-2.4219 9.9219l-0.0937 23.438c0 1.793-0.82422 2.6875-2.4688 2.6875h-7.3438c-0.77344 0-1.375-0.23828-1.8125-0.71875-0.4375-0.47656-0.65625-1.1328-0.65625-1.9688v-44c0-0.84375 0.21875-1.5039 0.65625-1.9844 0.4375-0.47657 1.0391-0.71875 1.8125-0.71875h7.3438c0.76953 0 1.375 0.24218 1.8125 0.71875 0.4375 0.48047 0.65625 1.1406 0.65625 1.9844v1.7969c1.5938-1.5625 3.5156-2.8477 5.7656-3.8594 2.2578-1.0195 4.3281-1.5312 6.2031-1.5312 6.375 0 11.238 2.2461 14.594 6.7344 1.707-2.1562 3.8281-3.8164 6.3594-4.9844 2.5312-1.1641 5.2812-1.75 8.25-1.75zm54.117 51.531c-3.8555 0-7.625-0.86719-11.312-2.5938-3.6797-1.7383-6.7812-4.4297-9.3125-8.0781-2.6992-3.832-4.0469-8.8633-4.0469-15.094 0-5.082 1.082-9.5703 3.25-13.469 2.1758-3.8945 5.1328-6.9062 8.875-9.0312 3.7383-2.125 7.9219-3.1875 12.547-3.1875 4.0625 0 7.8672 0.97656 11.422 2.9219 3.5508 1.9492 6.4531 4.75 8.7031 8.4062 1.4883 2.3867 2.4531 4.7188 2.8906 7 0.43751 2.2734 0.65626 4.9336 0.65626 7.9844 0 1.2617-0.3047 2.3125-0.90626 3.1562-0.60546 0.83593-1.4609 1.25-2.5625 1.25h-32.578c0.60156 3.1172 2.1133 5.3906 4.5312 6.8281 2.4141 1.4375 5.0312 2.1562 7.8438 2.1562 2.25 0 4.1719-0.35937 5.7656-1.0781s3.0234-1.7383 4.2969-3.0625c0.71875-0.65625 1.3789-0.98438 1.9844-0.98438 0.48828 0 0.98438 0.1836 1.4844 0.54688l5.3594 3.4062c0.875 0.54297 1.3125 1.1992 1.3125 1.9688 0 0.48047-0.21876 1.0547-0.65626 1.7188-5.0625 6.1562-11.578 9.2344-19.547 9.2344zm-0.0937-39.688c-3.3555 0-6.1211 0.90235-8.2969 2.7031-2.168 1.793-3.3867 4.0391-3.6562 6.7344h22.688c-0.16797-1.6133-0.71875-3.1406-1.6562-4.5781-0.92968-1.4375-2.1641-2.6094-3.7031-3.5156-1.543-0.89453-3.3359-1.3438-5.375-1.3438zm77.883-10.953c0.76954 0 1.375 0.24218 1.8125 0.71875 0.44532 0.48047 0.67188 1.1406 0.67188 1.9844v42.281c0 7.1875-2.0274 12.816-6.0781 16.891-4.043 4.0703-9.6641 6.1094-16.859 6.1094-7.7109 0-14.281-1.9805-19.719-5.9375-0.77344-0.53125-1.1562-1.1875-1.1562-1.9688 0-0.54297 0.19141-1.1094 0.57813-1.7031l3.2188-5.125c0.55079-0.83594 1.1797-1.25 1.8906-1.25 0.5 0 1.0195 0.17578 1.5625 0.53125 1.7578 1.2578 3.7383 2.2344 5.9375 2.9219 2.207 0.6875 4.4687 1.0312 6.7812 1.0312 7.75 0 11.625-3.8359 11.625-11.5v-0.79687c-3.2422 2.9297-7.4766 4.3906-12.703 4.3906-4.7305 0-8.9141-1.0781-12.547-3.2344-3.625-2.1562-6.4297-5.1445-8.4062-8.9688-1.9297-3.832-2.8906-7.9922-2.8906-12.484 0-4.6641 0.96093-8.8516 2.8906-12.562 1.9258-3.7188 4.7031-6.6875 8.3281-8.9062 3.5195-2.207 7.7266-3.3125 12.625-3.3125 5.2266 0 9.4609 1.4648 12.703 4.3906v-0.79688c0-0.84375 0.21875-1.5039 0.65624-1.9844 0.44532-0.47657 1.0508-0.71875 1.8125-0.71875zm-21.703 37.266c2.3125 0 4.4141-0.58203 6.3125-1.75 1.9062-1.1641 3.4062-2.7969 4.5-4.8906 1.1016-2.0938 1.6562-4.3359 1.6562-6.7344 0-2.5195-0.53907-4.7969-1.6094-6.8281-1.0742-2.0312-2.5742-3.6445-4.5-4.8438-1.8672-1.1328-3.9844-1.7031-6.3594-1.7031-3.6797 0-6.6719 1.2578-8.9844 3.7656-2.3125 2.5117-3.4688 5.7148-3.4688 9.6094 0 4.0117 1.125 7.2461 3.375 9.7031 2.2578 2.4492 5.2852 3.6719 9.0781 3.6719zm58.914 13.375c-3.8555 0-7.625-0.86719-11.312-2.5938-3.6797-1.7383-6.7812-4.4297-9.3125-8.0781-2.6992-3.832-4.0469-8.8633-4.0469-15.094 0-5.082 1.082-9.5703 3.25-13.469 2.1758-3.8945 5.1328-6.9062 8.875-9.0312 3.7383-2.125 7.9219-3.1875 12.547-3.1875 4.0625 0 7.8672 0.97656 11.422 2.9219 3.5508 1.9492 6.4531 4.75 8.7031 8.4062 1.4883 2.3867 2.4531 4.7188 2.8906 7 0.43751 2.2734 0.65625 4.9336 0.65625 7.9844 0 1.2617-0.30469 2.3125-0.90625 3.1562-0.60547 0.83593-1.4609 1.25-2.5625 1.25h-32.578c0.60156 3.1172 2.1133 5.3906 4.5313 6.8281 2.4141 1.4375 5.0312 2.1562 7.8437 2.1562 2.25 0 4.1719-0.35937 5.7656-1.0781s3.0234-1.7383 4.2969-3.0625c0.71875-0.65625 1.3789-0.98438 1.9844-0.98438 0.48828 0 0.98438 0.1836 1.4844 0.54688l5.3594 3.4062c0.875 0.54297 1.3125 1.1992 1.3125 1.9688 0 0.48047-0.21876 1.0547-0.65626 1.7188-5.0625 6.1562-11.578 9.2344-19.547 9.2344zm-0.0937-39.688c-3.3555 0-6.1211 0.90235-8.2969 2.7031-2.168 1.793-3.3867 4.0391-3.6562 6.7344h22.687c-0.16797-1.6133-0.71874-3.1406-1.6562-4.5781-0.92968-1.4375-2.164-2.6094-3.7031-3.5156-1.543-0.89453-3.3359-1.3438-5.375-1.3438zm58.914-11.766c0.76952-0.0508 1.375 0.16406 1.8125 0.64062 0.43751 0.48047 0.65625 1.168 0.65625 2.0625v7.625c0 1.625-0.82422 2.5274-2.4687 2.7031-1.7617 0.11719-3.5234 0.57812-5.2813 1.3906-1.7617 0.80469-3.3555 2.043-4.7812 3.7188-1.9922 2.3359-2.9844 5.7461-2.9844 10.234v19.141c0 0.83594-0.21875 1.4922-0.65626 1.9688-0.43749 0.48047-1.043 0.71875-1.8125 0.71875h-7.3438c-0.77343 0-1.375-0.23828-1.8125-0.71875-0.43751-0.47656-0.65626-1.1328-0.65626-1.9688v-44c0-0.84375 0.21875-1.5039 0.65626-1.9844 0.43749-0.47657 1.0391-0.71875 1.8125-0.71875h7.3438c0.76953 0 1.375 0.24218 1.8125 0.71875 0.43751 0.48047 0.65626 1.1406 0.65626 1.9844v3.8594c1.6016-2.2812 3.5547-4.0195 5.8594-5.2188 2.3125-1.1953 4.707-1.9141 7.1875-2.1562zm19.711 43.734c0 1.9805-0.67969 3.6719-2.0312 5.0781-1.3438 1.4062-2.9492 2.1094-4.8125 2.1094-1.875 0-3.4766-0.70312-4.7969-2.1094-1.3125-1.4062-1.9687-3.0977-1.9687-5.0781 0-1.9141 0.65625-3.5938 1.9687-5.0312 1.3203-1.4375 2.9219-2.1562 4.7969-2.1562 1.8633 0 3.4688 0.71875 4.8125 2.1562 1.3516 1.4375 2.0312 3.1172 2.0312 5.0312zm30.359 7.7188c-4.4609 0-8.5742-1.1523-12.344-3.4531-3.7617-2.3008-6.7656-5.4258-9.0156-9.375-2.2618-4.0078-3.3907-8.3203-3.3907-12.938 0-4.6016 1.0977-8.8789 3.2969-12.828 2.1953-3.957 5.2227-7.1016 9.0781-9.4375 3.7383-2.2812 7.8359-3.4219 12.297-3.4219 4.3438 0 8.3008 1.0234 11.875 3.0625 3.5703 2.0312 6.5703 4.9648 9 8.7969 0.32031 0.54297 0.48437 1.0234 0.48437 1.4375 0 0.96094-0.54688 1.6797-1.6406 2.1562l-6.5156 2.7812c-0.38672 0.17969-0.77344 0.26563-1.1562 0.26563-0.77344 0-1.4922-0.47656-2.1562-1.4375-2.586-3.5312-5.8828-5.2969-9.8906-5.2969-3.5742 0-6.5312 1.3203-8.875 3.9531-2.3359 2.6367-3.5 5.9609-3.5 9.9688 0 2.6367 0.53515 5.0156 1.6094 7.1406 1.0703 2.125 2.5547 3.7891 4.4531 4.9844 1.8945 1.1992 4.0234 1.7969 6.3906 1.7969 4.1758 0 7.5547-1.7344 10.141-5.2031 0.66406-0.90625 1.4102-1.3594 2.2344-1.3594 0.38281 0 0.76953 0.0937 1.1562 0.28125l5.9375 2.5c1.1016 0.48047 1.6562 1.1992 1.6562 2.1562 0 0.42969-0.14063 0.88281-0.42188 1.3594-4.4492 8.0742-11.352 12.109-20.703 12.109zm33.574-1.25c-0.77342 0-1.375-0.23828-1.8125-0.71875-0.43751-0.47656-0.65625-1.1328-0.65625-1.9688v-62.5c0-0.84375 0.21874-1.5039 0.65625-1.9844 0.43749-0.47656 1.0391-0.71875 1.8125-0.71875h7.4219c0.76954 0 1.375 0.24219 1.8125 0.71875 0.44531 0.48047 0.67187 1.1406 0.67187 1.9844v62.5c0 0.83594-0.22656 1.4922-0.67187 1.9688-0.43751 0.48047-1.043 0.71875-1.8125 0.71875zm44.129 1.1719c-4.4492 0-8.5586-1.1524-12.328-3.4531-3.7734-2.3125-6.7578-5.4414-8.9531-9.3906-2.1992-3.8945-3.2969-8.207-3.2969-12.938 0-4.6016 1.0976-8.8789 3.2969-12.828 2.1953-3.957 5.1953-7.1016 9-9.4375 3.7383-2.2695 7.832-3.4062 12.281-3.4062 4.457 0 8.582 1.1524 12.375 3.4531 3.8008 2.3047 6.8281 5.4336 9.0781 9.3906 2.1953 3.8867 3.2969 8.1641 3.2969 12.828 0 4.6172-1.1172 8.8984-3.3438 12.844-2.2188 3.9492-5.2305 7.0938-9.0312 9.4375-3.793 2.332-7.918 3.5-12.375 3.5zm0-39.688c-2.25 0-4.3398 0.61719-6.2656 1.8438-1.9297 1.2188-3.4375 2.875-4.5312 4.9688-1.1055 2.2188-1.6562 4.5859-1.6562 7.0938 0 2.6992 0.53516 5.1094 1.6094 7.2344 1.0703 2.125 2.5703 3.7891 4.5 4.9844 1.9258 1.2617 4.0391 1.8906 6.3438 1.8906 2.3125 0 4.4141-0.61328 6.3125-1.8438 1.9063-1.2266 3.4063-2.9219 4.5-5.0781 1.1016-2.2188 1.6563-4.6133 1.6563-7.1875 0-2.5703-0.53907-4.9219-1.6094-7.0469-1.0742-2.125-2.5742-3.8164-4.5-5.0781-1.9297-1.1875-4.0469-1.7812-6.3594-1.7812zm51.738 39.594c-11.887 0-17.828-7.0352-17.828-21.109v-26.484c0-0.83203 0.21874-1.4883 0.65625-1.9688 0.44531-0.47656 1.0508-0.71875 1.8125-0.71875h7.5156c0.76953 0 1.375 0.24219 1.8125 0.71875 0.43749 0.48047 0.65624 1.1367 0.65624 1.9688v26.484c0 3.418 0.76953 5.9219 2.3125 7.5156 1.5391 1.5859 3.7109 2.375 6.5156 2.375 2.582 0 4.7109-1.0625 6.3906-3.1875 1.6875-2.125 2.4453-5.375 2.2812-9.75v-23.438c0-0.83203 0.21876-1.4883 0.65626-1.9688 0.4375-0.47656 1.0391-0.71875 1.8125-0.71875h7.4219c0.76953 0 1.375 0.24219 1.8125 0.71875 0.4453 0.48047 0.67186 1.1367 0.67186 1.9688v43.828c0 0.83594-0.22656 1.4922-0.67186 1.9688-0.43751 0.48047-1.043 0.71875-1.8125 0.71875h-7.4219c-0.77344 0-1.375-0.23828-1.8125-0.71875-0.4375-0.47656-0.65626-1.1328-0.65626-1.9688v-1.5312c-1.4922 1.6797-3.293 2.9805-5.4062 3.9062-2.1172 0.92578-4.3555 1.3906-6.7188 1.3906zm73.406-1.0781c-0.76172 0-1.3672-0.23828-1.8125-0.71875-0.4375-0.47656-0.65625-1.1328-0.65625-1.9688v-2.25c-1.1055 1.6172-2.9492 3.0234-5.5312 4.2188-2.5859 1.1953-5.3359 1.7969-8.25 1.7969-4.6172 0-8.6563-1.1172-12.125-3.3594-3.4609-2.25-6.1016-5.3789-7.9219-9.3906-1.8125-3.8945-2.7188-8.2344-2.7188-13.016 0-4.8516 0.92188-9.2226 2.7656-13.109 1.8437-3.8945 4.4687-6.9766 7.875-9.25 3.4141-2.2812 7.457-3.4219 12.125-3.4219 3.0312 0 5.7539 0.57422 8.1719 1.7188 2.4141 1.1367 4.2852 2.6328 5.6094 4.4844v-20.922c0-0.84375 0.21875-1.5039 0.65625-1.9844 0.44531-0.47656 1.0508-0.71875 1.8125-0.71875h7.2656c0.76954 0 1.375 0.24219 1.8125 0.71875 0.44531 0.48047 0.67187 1.1406 0.67187 1.9844v62.5c0 0.83594-0.22656 1.4922-0.67187 1.9688-0.43751 0.48047-1.043 0.71875-1.8125 0.71875zm-1.9688-24.688c0-4.1953-1.1406-7.582-3.4219-10.156-2.2812-2.5703-5.2969-3.8594-9.0469-3.8594-3.793 0-6.8203 1.2891-9.0781 3.8594-2.25 2.5742-3.375 5.9609-3.375 10.156 0 4.0625 1.1562 7.3984 3.4688 10 2.3125 2.6055 5.3047 3.9062 8.9844 3.9062 3.8516 0 6.8945-1.2383 9.125-3.7188 2.2266-2.4883 3.3438-5.8828 3.3438-10.188z" fill="#262261" aria-label="meger.cloud"/>
  <path transform="matrix(1.3333 0 0 -1.3333 507.75 97.023)" d="m0 0c-0.01 0.08-0.021 0.157-0.031 0.236-2.847 22.46-20.547 24.707-24.814 24.92-0.591 0.03-0.927 0.021-0.927 0.021-8 21.501-28.169 20.426-28.169 20.426-17.912-0.477-24.852-14.155-24.852-14.155-25.812 10.147-34.966-9.599-36.553-13.696-0.179-0.461-0.263-0.727-0.263-0.727-10.429-3.349-15.125-8.24-17.24-11.967-1.739-3.063-1.968-6.591-0.791-9.852 2.922-8.098 11.467-13.031 11.467-13.031-2.278 2.724-3.9 5.166-5.053 7.292-0.378 0.698-0.701 1.357-0.986 1.986-0.828 1.834-1.288 3.371-1.532 4.573-0.462 2.277-0.016 4.646 1.377 6.613 5.156 7.282 19.184 8.562 19.184 8.562 3.145 10.512 11.076 13.259 11.076 13.259 9.162 4.54 22.425-3.046 22.425-3.046 6.974 15.649 22.288 15.708 22.288 15.708 18.323 0.836 20.443-20.277 20.443-20.277 23.792 2.509 33.296-21.77 33.296-21.77-0.039 1.741-0.158 3.38-0.345 4.925" clip-path="url(#clipPath3)" fill="#00609f"/>
 </g>
</svg>
